<svg width="15" height="18" viewBox="0 0 15 18" fill="none" xmlns="http://www.w3.org/2000/svg">
<path d="M14.5982 16.0714H13.9286V0.803571C13.9286 0.359766 13.5688 0 13.125 0H1.875C1.43119 0 1.07143 0.359766 1.07143 0.803571V16.0714H0.401786C0.1799 16.0714 0 16.2513 0 16.4732V17.1429H15V16.4732C15 16.2513 14.8201 16.0714 14.5982 16.0714ZM4.28571 2.54464C4.28571 2.32276 4.46561 2.14286 4.6875 2.14286H6.02679C6.24867 2.14286 6.42857 2.32276 6.42857 2.54464V3.88393C6.42857 4.10581 6.24867 4.28571 6.02679 4.28571H4.6875C4.46561 4.28571 4.28571 4.10581 4.28571 3.88393V2.54464ZM4.28571 5.75893C4.28571 5.53704 4.46561 5.35714 4.6875 5.35714H6.02679C6.24867 5.35714 6.42857 5.53704 6.42857 5.75893V7.09821C6.42857 7.3201 6.24867 7.5 6.02679 7.5H4.6875C4.46561 7.5 4.28571 7.3201 4.28571 7.09821V5.75893ZM6.02679 10.7143H4.6875C4.46561 10.7143 4.28571 10.5344 4.28571 10.3125V8.97321C4.28571 8.75133 4.46561 8.57143 4.6875 8.57143H6.02679C6.24867 8.57143 6.42857 8.75133 6.42857 8.97321V10.3125C6.42857 10.5344 6.24867 10.7143 6.02679 10.7143ZM8.57143 16.0714H6.42857V13.2589C6.42857 13.037 6.60847 12.8571 6.83036 12.8571H8.16964C8.39153 12.8571 8.57143 13.037 8.57143 13.2589V16.0714ZM10.7143 10.3125C10.7143 10.5344 10.5344 10.7143 10.3125 10.7143H8.97321C8.75133 10.7143 8.57143 10.5344 8.57143 10.3125V8.97321C8.57143 8.75133 8.75133 8.57143 8.97321 8.57143H10.3125C10.5344 8.57143 10.7143 8.75133 10.7143 8.97321V10.3125ZM10.7143 7.09821C10.7143 7.3201 10.5344 7.5 10.3125 7.5H8.97321C8.75133 7.5 8.57143 7.3201 8.57143 7.09821V5.75893C8.57143 5.53704 8.75133 5.35714 8.97321 5.35714H10.3125C10.5344 5.35714 10.7143 5.53704 10.7143 5.75893V7.09821ZM10.7143 3.88393C10.7143 4.10581 10.5344 4.28571 10.3125 4.28571H8.97321C8.75133 4.28571 8.57143 4.10581 8.57143 3.88393V2.54464C8.57143 2.32276 8.75133 2.14286 8.97321 2.14286H10.3125C10.5344 2.14286 10.7143 2.32276 10.7143 2.54464V3.88393Z" fill="#969696"/>
</svg>
