<svg width="1312" height="458" viewBox="0 0 1312 458" fill="none" xmlns="http://www.w3.org/2000/svg">
<circle cx="120" cy="338" r="120" fill="url(#paint0_radial_66_2)"/>
<path d="M100.436 70.816H90.3555V66.592H114.74V70.816H104.66V100H100.436V70.816ZM150.291 66.592V100H146.067V84.544H128.115V100H123.891V66.592H128.115V80.608H146.067V66.592H150.291ZM166.505 70.624V81.184H181.145V85.024H166.505V95.968H182.201V100H162.281V66.592H182.201V70.624H166.505ZM220.598 100.576C217.366 100.576 214.598 99.856 212.294 98.416C210.022 96.976 208.278 94.96 207.062 92.368C205.878 89.776 205.286 86.752 205.286 83.296C205.286 79.84 205.878 76.816 207.062 74.224C208.278 71.632 210.022 69.616 212.294 68.176C214.598 66.736 217.366 66.016 220.598 66.016C223.83 66.016 226.582 66.736 228.854 68.176C231.158 69.616 232.902 71.632 234.086 74.224C235.302 76.816 235.91 79.84 235.91 83.296C235.91 86.752 235.302 89.776 234.086 92.368C232.902 94.96 231.158 96.976 228.854 98.416C226.582 99.856 223.83 100.576 220.598 100.576ZM220.598 96.736C224.182 96.736 226.87 95.536 228.661 93.136C230.454 90.704 231.35 87.424 231.35 83.296C231.35 79.168 230.454 75.904 228.661 73.504C226.87 71.072 224.182 69.856 220.598 69.856C217.014 69.856 214.326 71.072 212.534 73.504C210.742 75.904 209.846 79.168 209.846 83.296C209.846 87.424 210.742 90.704 212.534 93.136C214.326 95.536 217.014 96.736 220.598 96.736ZM273.15 66.592V100H268.926L250.974 74.224V100H246.75V66.592H250.974L268.926 92.368V66.592H273.15ZM285.141 66.592H289.365V95.968H304.437V100H285.141V66.592ZM333.885 66.592L322.077 87.808V100H317.853V87.808L306.045 66.592H310.989L319.965 83.296L329.181 66.592H333.885Z" fill="white"/>
<path d="M417.605 95.448H374.725L365.637 119H354.373L388.677 29.912H404.293L438.597 119H426.693L417.605 95.448ZM413.893 85.848L396.229 39.768L378.437 85.848H413.893ZM458.723 29.912H469.987V119H458.723V29.912Z" fill="white"/>
<path d="M112.839 245.38C105.096 245.38 98.5025 243.655 93.0592 240.205C87.6925 236.755 83.6292 231.925 80.8692 225.715C78.1859 219.505 76.8442 212.26 76.8442 203.98C76.8442 195.7 78.1859 188.455 80.8692 182.245C83.6292 176.035 87.6925 171.205 93.0592 167.755C98.5025 164.305 105.096 162.58 112.839 162.58C117.056 162.58 121.119 163.117 125.029 164.19C128.939 165.187 132.504 166.682 135.724 168.675V180.175H135.264C132.734 177.722 129.553 175.767 125.719 174.31C121.886 172.777 117.708 172.01 113.184 172.01C104.444 172.01 98.0042 174.847 93.8642 180.52C89.8009 186.193 87.7692 194.013 87.7692 203.98C87.7692 214.023 89.8009 221.882 93.8642 227.555C98.0042 233.228 104.406 236.065 113.069 236.065C117.439 236.065 121.541 235.337 125.374 233.88C129.284 232.423 132.581 230.392 135.264 227.785H135.724V239.285C132.504 241.278 128.939 242.812 125.029 243.885C121.119 244.882 117.056 245.38 112.839 245.38ZM204.923 222.84H166.398L158.233 244H148.113L178.933 163.96H192.963L223.783 244H213.088L204.923 222.84ZM201.588 214.215L185.718 172.815L169.733 214.215H201.588ZM284.185 244L267.97 212.605H266.82H248.42V244H238.3V163.96H265.44C275.023 163.96 282.153 165.992 286.83 170.055C291.506 174.042 293.845 179.907 293.845 187.65C293.845 193.4 292.58 198.268 290.05 202.255C287.52 206.242 283.801 209.078 278.895 210.765L296.375 244H284.185ZM265.555 203.06C271.535 203.06 275.905 201.91 278.665 199.61C281.501 197.233 282.92 193.247 282.92 187.65C282.92 182.513 281.501 178.91 278.665 176.84C275.905 174.693 271.496 173.62 265.44 173.62H248.42V203.06H265.555ZM324.342 173.62V198.92H359.417V208.12H324.342V234.34H361.947V244H314.222V163.96H361.947V173.62H324.342ZM393.302 173.62V198.92H428.377V208.12H393.302V234.34H430.907V244H383.182V163.96H430.907V173.62H393.302ZM498.026 244L481.811 212.605H480.661H462.261V244H452.141V163.96H479.281C488.865 163.96 495.995 165.992 500.671 170.055C505.348 174.042 507.686 179.907 507.686 187.65C507.686 193.4 506.421 198.268 503.891 202.255C501.361 206.242 497.643 209.078 492.736 210.765L510.216 244H498.026ZM479.396 203.06C485.376 203.06 489.746 201.91 492.506 199.61C495.343 197.233 496.761 193.247 496.761 187.65C496.761 182.513 495.343 178.91 492.506 176.84C489.746 174.693 485.338 173.62 479.281 173.62H462.261V203.06H479.396ZM588.93 245.38C581.187 245.38 574.594 243.655 569.15 240.205C563.784 236.755 559.72 231.925 556.96 225.715C554.277 219.505 552.935 212.26 552.935 203.98C552.935 195.7 554.277 188.455 556.96 182.245C559.72 176.035 563.784 171.205 569.15 167.755C574.594 164.305 581.187 162.58 588.93 162.58C593.147 162.58 597.21 163.117 601.12 164.19C605.03 165.187 608.595 166.682 611.815 168.675V180.175H611.355C608.825 177.722 605.644 175.767 601.81 174.31C597.977 172.777 593.799 172.01 589.275 172.01C580.535 172.01 574.095 174.847 569.955 180.52C565.892 186.193 563.86 194.013 563.86 203.98C563.86 214.023 565.892 221.882 569.955 227.555C574.095 233.228 580.497 236.065 589.16 236.065C593.53 236.065 597.632 235.337 601.465 233.88C605.375 232.423 608.672 230.392 611.355 227.785H611.815V239.285C608.595 241.278 605.03 242.812 601.12 243.885C597.21 244.882 593.147 245.38 588.93 245.38ZM667.789 245.38C660.045 245.38 653.414 243.655 647.894 240.205C642.45 236.755 638.272 231.925 635.359 225.715C632.522 219.505 631.104 212.26 631.104 203.98C631.104 195.7 632.522 188.455 635.359 182.245C638.272 176.035 642.45 171.205 647.894 167.755C653.414 164.305 660.045 162.58 667.789 162.58C675.532 162.58 682.125 164.305 687.569 167.755C693.089 171.205 697.267 176.035 700.104 182.245C703.017 188.455 704.474 195.7 704.474 203.98C704.474 212.26 703.017 219.505 700.104 225.715C697.267 231.925 693.089 236.755 687.569 240.205C682.125 243.655 675.532 245.38 667.789 245.38ZM667.789 236.18C676.375 236.18 682.815 233.305 687.109 227.555C691.402 221.728 693.549 213.87 693.549 203.98C693.549 194.09 691.402 186.27 687.109 180.52C682.815 174.693 676.375 171.78 667.789 171.78C659.202 171.78 652.762 174.693 648.469 180.52C644.175 186.27 642.029 194.09 642.029 203.98C642.029 213.87 644.175 221.728 648.469 227.555C652.762 233.305 659.202 236.18 667.789 236.18ZM756.321 245.38C746.661 245.38 739.147 242.313 733.781 236.18C728.491 229.97 725.846 221.537 725.846 210.88V163.96H735.966V210.535C735.966 218.355 737.691 224.565 741.141 229.165C744.667 233.688 749.727 235.95 756.321 235.95C762.914 235.95 767.936 233.688 771.386 229.165C774.912 224.565 776.676 218.355 776.676 210.535V163.96H786.796V210.88C786.796 221.537 784.112 229.97 778.746 236.18C773.456 242.313 765.981 245.38 756.321 245.38ZM874.227 163.96V244H864.107L821.097 182.245V244H810.977V163.96H821.097L864.107 225.715V163.96H874.227ZM921.47 245.38C917.023 245.38 912.385 244.805 907.555 243.655C902.725 242.505 898.163 240.933 893.87 238.94V228.015C898.93 230.775 903.606 232.807 907.9 234.11C912.27 235.413 916.563 236.065 920.78 236.065C926.07 236.065 930.171 234.877 933.085 232.5C935.998 230.123 937.455 226.865 937.455 222.725C937.455 219.888 936.65 217.512 935.04 215.595C933.43 213.678 931.398 212.145 928.945 210.995C926.491 209.845 923.195 208.58 919.055 207.2C914.071 205.513 910.046 203.903 906.98 202.37C903.99 200.837 901.421 198.652 899.275 195.815C897.128 192.978 896.055 189.298 896.055 184.775C896.055 178.028 898.508 172.662 903.415 168.675C908.321 164.612 914.915 162.58 923.195 162.58C931.245 162.58 938.643 164.305 945.39 167.755V178.335C937.8 174.042 930.401 171.895 923.195 171.895C917.905 171.895 913.765 172.968 910.775 175.115C907.785 177.185 906.29 180.06 906.29 183.74C906.29 186.27 907.056 188.378 908.59 190.065C910.123 191.752 912.001 193.132 914.225 194.205C916.448 195.202 919.591 196.428 923.655 197.885C928.715 199.572 932.855 201.22 936.075 202.83C939.295 204.44 942.016 206.778 944.24 209.845C946.54 212.912 947.69 216.86 947.69 221.69C947.69 226.443 946.616 230.622 944.47 234.225C942.323 237.752 939.256 240.512 935.27 242.505C931.283 244.422 926.683 245.38 921.47 245.38ZM977.434 173.62V198.92H1012.51V208.12H977.434V234.34H1015.04V244H967.314V163.96H1015.04V173.62H977.434ZM1036.27 163.96H1046.39V234.34H1082.5V244H1036.27V163.96ZM1098.38 163.96H1108.5V234.34H1144.61V244H1098.38V163.96ZM1187.57 245.38C1179.82 245.38 1173.19 243.655 1167.67 240.205C1162.23 236.755 1158.05 231.925 1155.14 225.715C1152.3 219.505 1150.88 212.26 1150.88 203.98C1150.88 195.7 1152.3 188.455 1155.14 182.245C1158.05 176.035 1162.23 171.205 1167.67 167.755C1173.19 164.305 1179.82 162.58 1187.57 162.58C1195.31 162.58 1201.9 164.305 1207.35 167.755C1212.87 171.205 1217.04 176.035 1219.88 182.245C1222.79 188.455 1224.25 195.7 1224.25 203.98C1224.25 212.26 1222.79 219.505 1219.88 225.715C1217.04 231.925 1212.87 236.755 1207.35 240.205C1201.9 243.655 1195.31 245.38 1187.57 245.38ZM1187.57 236.18C1196.15 236.18 1202.59 233.305 1206.89 227.555C1211.18 221.728 1213.33 213.87 1213.33 203.98C1213.33 194.09 1211.18 186.27 1206.89 180.52C1202.59 174.693 1196.15 171.78 1187.57 171.78C1178.98 171.78 1172.54 174.693 1168.25 180.52C1163.95 186.27 1161.81 194.09 1161.81 203.98C1161.81 213.87 1163.95 221.728 1168.25 227.555C1172.54 233.305 1178.98 236.18 1187.57 236.18ZM1291.51 244L1275.29 212.605H1274.14H1255.74V244H1245.62V163.96H1272.76C1282.35 163.96 1289.48 165.992 1294.15 170.055C1298.83 174.042 1301.17 179.907 1301.17 187.65C1301.17 193.4 1299.9 198.268 1297.37 202.255C1294.84 206.242 1291.12 209.078 1286.22 210.765L1303.7 244H1291.51ZM1272.88 203.06C1278.86 203.06 1283.23 201.91 1285.99 199.61C1288.82 197.233 1290.24 193.247 1290.24 187.65C1290.24 182.513 1288.82 178.91 1285.99 176.84C1283.23 174.693 1278.82 173.62 1272.76 173.62H1255.74V203.06H1272.88Z" fill="white"/>
<path d="M824.951 273.944H833.087C839.327 273.944 842.447 276.68 842.447 282.152C842.447 284.912 841.667 287.024 840.107 288.488C838.571 289.928 836.315 290.648 833.339 290.648H828.119V299H824.951V273.944ZM833.231 287.696C835.295 287.696 836.771 287.276 837.659 286.436C838.571 285.596 839.027 284.216 839.027 282.296C839.027 280.376 838.571 279.008 837.659 278.192C836.771 277.376 835.247 276.968 833.087 276.968H828.119V287.696H833.231ZM855.737 299.432C853.001 299.432 850.865 298.544 849.329 296.768C847.793 294.968 847.025 292.58 847.025 289.604C847.025 286.628 847.793 284.252 849.329 282.476C850.865 280.676 853.001 279.776 855.737 279.776C858.473 279.776 860.609 280.676 862.145 282.476C863.681 284.252 864.449 286.628 864.449 289.604C864.449 292.58 863.681 294.968 862.145 296.768C860.609 298.544 858.473 299.432 855.737 299.432ZM855.737 296.696C857.489 296.696 858.809 296.048 859.697 294.752C860.585 293.456 861.029 291.74 861.029 289.604C861.029 287.468 860.585 285.752 859.697 284.456C858.809 283.16 857.489 282.512 855.737 282.512C853.985 282.512 852.665 283.16 851.777 284.456C850.913 285.752 850.481 287.468 850.481 289.604C850.481 291.74 850.913 293.456 851.777 294.752C852.665 296.048 853.985 296.696 855.737 296.696ZM897.124 280.208L891.22 299H887.116L882.688 284.564L878.332 299H874.228L868.324 280.208H871.564L876.46 295.94L881.14 280.208H884.38L889.132 295.94L894.028 280.208H897.124ZM917.369 290.648H904.049C904.241 292.496 904.853 293.972 905.885 295.076C906.941 296.156 908.369 296.696 910.169 296.696C911.249 296.696 912.293 296.48 913.301 296.048C914.333 295.592 915.377 294.932 916.433 294.068H916.577V297.236C915.521 298.004 914.477 298.568 913.445 298.928C912.413 299.264 911.309 299.432 910.133 299.432C908.213 299.432 906.545 299.012 905.129 298.172C903.713 297.332 902.621 296.168 901.853 294.68C901.109 293.168 900.737 291.44 900.737 289.496C900.737 287.648 901.073 285.992 901.745 284.528C902.441 283.04 903.425 281.876 904.697 281.036C905.969 280.196 907.457 279.776 909.161 279.776C910.889 279.776 912.365 280.208 913.589 281.072C914.837 281.912 915.773 283.076 916.397 284.564C917.045 286.052 917.369 287.732 917.369 289.604V290.648ZM909.197 282.404C907.709 282.404 906.521 282.944 905.633 284.024C904.745 285.104 904.217 286.496 904.049 288.2H914.093C913.925 286.448 913.433 285.044 912.617 283.988C911.825 282.932 910.685 282.404 909.197 282.404ZM932.835 279.776V283.268H932.295C931.167 283.268 930.147 283.472 929.235 283.88C928.347 284.288 927.603 284.876 927.003 285.644V299H923.835V284.384L923.043 280.208H926.211L926.859 283.556C927.843 282.116 928.671 281.132 929.343 280.604C930.039 280.052 930.831 279.776 931.719 279.776H932.835ZM953.369 290.648H940.049C940.241 292.496 940.853 293.972 941.885 295.076C942.941 296.156 944.369 296.696 946.169 296.696C947.249 296.696 948.293 296.48 949.301 296.048C950.333 295.592 951.377 294.932 952.433 294.068H952.577V297.236C951.521 298.004 950.477 298.568 949.445 298.928C948.413 299.264 947.309 299.432 946.133 299.432C944.213 299.432 942.545 299.012 941.129 298.172C939.713 297.332 938.621 296.168 937.853 294.68C937.109 293.168 936.737 291.44 936.737 289.496C936.737 287.648 937.073 285.992 937.745 284.528C938.441 283.04 939.425 281.876 940.697 281.036C941.969 280.196 943.457 279.776 945.161 279.776C946.889 279.776 948.365 280.208 949.589 281.072C950.837 281.912 951.773 283.076 952.397 284.564C953.045 286.052 953.369 287.732 953.369 289.604V290.648ZM945.197 282.404C943.709 282.404 942.521 282.944 941.633 284.024C940.745 285.104 940.217 286.496 940.049 288.2H950.093C949.925 286.448 949.433 285.044 948.617 283.988C947.825 282.932 946.685 282.404 945.197 282.404ZM972.687 299L972.219 296.516C971.355 297.476 970.383 298.196 969.303 298.676C968.223 299.156 967.011 299.396 965.667 299.396C963.339 299.396 961.551 298.496 960.303 296.696C959.055 294.896 958.431 292.592 958.431 289.784C958.431 287.864 958.767 286.148 959.439 284.636C960.135 283.124 961.119 281.936 962.391 281.072C963.687 280.208 965.223 279.776 966.999 279.776C967.863 279.776 968.679 279.884 969.447 280.1C970.215 280.292 971.031 280.58 971.895 280.964V271.856H975.063V294.824L975.855 299H972.687ZM966.171 296.48C967.323 296.48 968.343 296.252 969.231 295.796C970.143 295.316 971.031 294.62 971.895 293.708V283.376C970.359 282.848 968.835 282.584 967.323 282.584C965.571 282.584 964.215 283.256 963.255 284.6C962.319 285.92 961.851 287.624 961.851 289.712C961.851 291.704 962.187 293.336 962.859 294.608C963.555 295.856 964.659 296.48 966.171 296.48ZM1007.39 285.968C1009.79 287 1010.99 289.004 1010.99 291.98C1010.99 294.404 1010.22 296.18 1008.68 297.308C1007.15 298.436 1004.99 299 1002.2 299H993.42V273.944H1002.46C1004.9 273.944 1006.8 274.484 1008.14 275.564C1009.49 276.644 1010.16 278.288 1010.16 280.496C1010.16 283.016 1009.24 284.84 1007.39 285.968ZM996.588 276.968V284.708H1002.06C1003.72 284.708 1004.9 284.408 1005.62 283.808C1006.37 283.208 1006.74 282.152 1006.74 280.64C1006.74 279.248 1006.37 278.288 1005.62 277.76C1004.9 277.232 1003.72 276.968 1002.06 276.968H996.588ZM1002.2 295.976C1004.1 295.976 1005.47 295.688 1006.31 295.112C1007.15 294.536 1007.57 293.444 1007.57 291.836C1007.57 290.228 1007.14 289.136 1006.27 288.56C1005.43 287.984 1004.05 287.696 1002.13 287.696H996.588V295.976H1002.2ZM1033.31 280.208L1022.55 307.352H1019.31L1022.55 299.216L1015.1 280.208H1018.34L1024.21 295.616L1029.93 280.208H1033.31ZM1177.04 273.944H1180.21V295.976H1191.51V299H1177.04V273.944ZM1196.88 271.856H1200.05V299H1196.88V271.856ZM1218.81 299L1218.31 296.3C1217.37 297.332 1216.35 298.112 1215.25 298.64C1214.17 299.168 1212.95 299.432 1211.58 299.432C1209.87 299.432 1208.49 298.952 1207.44 297.992C1206.38 297.008 1205.85 295.712 1205.85 294.104C1205.85 292.016 1206.69 290.48 1208.37 289.496C1210.05 288.512 1212.21 288.02 1214.85 288.02C1215.81 288.02 1216.87 288.08 1218.02 288.2V286.904C1218.02 285.608 1217.66 284.576 1216.94 283.808C1216.25 283.016 1215.33 282.62 1214.21 282.62C1212.86 282.62 1211.64 282.8 1210.53 283.16C1209.45 283.52 1208.34 284.084 1207.19 284.852V281.792C1208.31 281.048 1209.47 280.532 1210.64 280.244C1211.82 279.932 1213.16 279.776 1214.67 279.776C1216.59 279.776 1218.15 280.388 1219.35 281.612C1220.58 282.836 1221.19 284.456 1221.19 286.472V294.824L1221.98 299H1218.81ZM1212.23 296.768C1213.38 296.768 1214.41 296.528 1215.32 296.048C1216.23 295.568 1217.13 294.872 1218.02 293.96V290.432H1214.71C1211.09 290.432 1209.27 291.596 1209.27 293.924C1209.27 294.788 1209.55 295.484 1210.1 296.012C1210.65 296.516 1211.36 296.768 1212.23 296.768ZM1248.84 279.776C1250.62 279.776 1251.96 280.328 1252.87 281.432C1253.78 282.512 1254.24 284.024 1254.24 285.968V299H1251.07V286.4C1251.07 285.2 1250.82 284.276 1250.32 283.628C1249.81 282.956 1249.04 282.62 1248.01 282.62C1246.96 282.62 1246.07 282.812 1245.35 283.196C1244.63 283.58 1243.8 284.204 1242.86 285.068C1242.89 285.26 1242.9 285.56 1242.9 285.968V299H1239.73V286.4C1239.73 285.2 1239.48 284.276 1238.98 283.628C1238.47 282.956 1237.7 282.62 1236.67 282.62C1235.62 282.62 1234.73 282.812 1234.01 283.196C1233.29 283.556 1232.47 284.168 1231.56 285.032V299H1228.39V284.384L1227.6 280.208H1230.77L1231.27 282.8C1232.35 281.72 1233.32 280.952 1234.19 280.496C1235.08 280.016 1236.18 279.776 1237.5 279.776C1238.75 279.776 1239.78 280.052 1240.6 280.604C1241.44 281.156 1242.05 281.948 1242.43 282.98C1243.58 281.828 1244.6 281.012 1245.49 280.532C1246.38 280.028 1247.5 279.776 1248.84 279.776ZM1273.55 299L1273.05 296.3C1272.11 297.332 1271.09 298.112 1269.99 298.64C1268.91 299.168 1267.68 299.432 1266.32 299.432C1264.61 299.432 1263.23 298.952 1262.18 297.992C1261.12 297.008 1260.59 295.712 1260.59 294.104C1260.59 292.016 1261.43 290.48 1263.11 289.496C1264.79 288.512 1266.95 288.02 1269.59 288.02C1270.55 288.02 1271.61 288.08 1272.76 288.2V286.904C1272.76 285.608 1272.4 284.576 1271.68 283.808C1270.98 283.016 1270.07 282.62 1268.94 282.62C1267.6 282.62 1266.38 282.8 1265.27 283.16C1264.19 283.52 1263.08 284.084 1261.92 284.852V281.792C1263.05 281.048 1264.2 280.532 1265.38 280.244C1266.56 279.932 1267.9 279.776 1269.41 279.776C1271.33 279.776 1272.89 280.388 1274.09 281.612C1275.32 282.836 1275.93 284.456 1275.93 286.472V294.824L1276.72 299H1273.55ZM1266.96 296.768C1268.12 296.768 1269.15 296.528 1270.06 296.048C1270.97 295.568 1271.87 294.872 1272.76 293.96V290.432H1269.45C1265.82 290.432 1264.01 291.596 1264.01 293.924C1264.01 294.788 1264.29 295.484 1264.84 296.012C1265.39 296.516 1266.1 296.768 1266.96 296.768ZM1308.7 295.976V299H1292.07V296.588L1301.07 286.976C1302.46 285.488 1303.41 284.312 1303.91 283.448C1304.42 282.56 1304.67 281.672 1304.67 280.784C1304.67 279.392 1304.2 278.324 1303.26 277.58C1302.33 276.812 1301.01 276.428 1299.3 276.428C1297 276.428 1294.85 277.1 1292.86 278.444V275.276C1294.85 274.1 1297.05 273.512 1299.45 273.512C1301.15 273.512 1302.64 273.8 1303.91 274.376C1305.21 274.928 1306.2 275.72 1306.9 276.752C1307.6 277.784 1307.94 278.984 1307.94 280.352C1307.94 281.624 1307.63 282.908 1307.01 284.204C1306.41 285.5 1305.51 286.76 1304.31 287.984L1296.57 295.976H1308.7Z" fill="white"/>
<path d="M1075.14 299H1071.97V276.68L1063.8 299H1060.35L1052.03 276.824V299H1048.86V273.944H1054.41L1062.15 294.572L1069.71 273.944H1075.14V299ZM1098.81 290.648H1085.49C1085.68 292.496 1086.29 293.972 1087.33 295.076C1088.38 296.156 1089.81 296.696 1091.61 296.696C1092.69 296.696 1093.73 296.48 1094.74 296.048C1095.77 295.592 1096.82 294.932 1097.87 294.068H1098.02V297.236C1096.96 298.004 1095.92 298.568 1094.89 298.928C1093.85 299.264 1092.75 299.432 1091.57 299.432C1089.65 299.432 1087.99 299.012 1086.57 298.172C1085.15 297.332 1084.06 296.168 1083.29 294.68C1082.55 293.168 1082.18 291.44 1082.18 289.496C1082.18 287.648 1082.51 285.992 1083.19 284.528C1083.88 283.04 1084.87 281.876 1086.14 281.036C1087.41 280.196 1088.9 279.776 1090.6 279.776C1092.33 279.776 1093.81 280.208 1095.03 281.072C1096.28 281.912 1097.21 283.076 1097.84 284.564C1098.49 286.052 1098.81 287.732 1098.81 289.604V290.648ZM1090.64 282.404C1089.15 282.404 1087.96 282.944 1087.07 284.024C1086.19 285.104 1085.66 286.496 1085.49 288.2H1095.53C1095.37 286.448 1094.87 285.044 1094.06 283.988C1093.27 282.932 1092.13 282.404 1090.64 282.404ZM1108.91 280.208H1114.1V282.944H1108.91V293.708C1108.91 294.596 1109.1 295.316 1109.49 295.868C1109.9 296.396 1110.48 296.66 1111.25 296.66C1111.78 296.66 1112.25 296.612 1112.66 296.516C1113.09 296.396 1113.57 296.216 1114.1 295.976V298.784C1113.54 299.048 1113.02 299.216 1112.51 299.288C1112.01 299.384 1111.4 299.432 1110.68 299.432C1109.14 299.432 1107.93 298.94 1107.04 297.956C1106.18 296.972 1105.74 295.664 1105.74 294.032V282.944H1102.14V280.208H1105.74V275.168L1108.91 273.512V280.208ZM1130.96 299L1130.45 296.3C1129.52 297.332 1128.5 298.112 1127.39 298.64C1126.31 299.168 1125.09 299.432 1123.72 299.432C1122.02 299.432 1120.64 298.952 1119.58 297.992C1118.53 297.008 1118 295.712 1118 294.104C1118 292.016 1118.84 290.48 1120.52 289.496C1122.2 288.512 1124.36 288.02 1127 288.02C1127.96 288.02 1129.01 288.08 1130.17 288.2V286.904C1130.17 285.608 1129.81 284.576 1129.09 283.808C1128.39 283.016 1127.48 282.62 1126.35 282.62C1125.01 282.62 1123.78 282.8 1122.68 283.16C1121.6 283.52 1120.48 284.084 1119.33 284.852V281.792C1120.46 281.048 1121.61 280.532 1122.79 280.244C1123.96 279.932 1125.31 279.776 1126.82 279.776C1128.74 279.776 1130.3 280.388 1131.5 281.612C1132.72 282.836 1133.33 284.456 1133.33 286.472V294.824L1134.13 299H1130.96ZM1124.37 296.768C1125.52 296.768 1126.55 296.528 1127.47 296.048C1128.38 295.568 1129.28 294.872 1130.17 293.96V290.432H1126.85C1123.23 290.432 1121.42 291.596 1121.42 293.924C1121.42 294.788 1121.69 295.484 1122.25 296.012C1122.8 296.516 1123.51 296.768 1124.37 296.768ZM1143.49 273.944C1143.49 275.336 1143.27 276.776 1142.84 278.264C1142.41 279.752 1141.64 281.456 1140.54 283.376H1137.37C1138.16 282.104 1138.74 280.928 1139.1 279.848C1139.46 278.744 1139.67 277.772 1139.75 276.932C1139.84 276.092 1139.89 275.096 1139.89 273.944H1143.49ZM1153.09 299.432C1151.94 299.432 1150.8 299.264 1149.67 298.928C1148.57 298.568 1147.52 298.064 1146.54 297.416V294.104C1148.72 295.784 1150.88 296.624 1153.02 296.624C1154.27 296.624 1155.28 296.372 1156.04 295.868C1156.81 295.34 1157.2 294.644 1157.2 293.78C1157.2 293.18 1157 292.688 1156.62 292.304C1156.26 291.92 1155.8 291.62 1155.25 291.404C1154.7 291.188 1153.91 290.924 1152.88 290.612C1151.6 290.252 1150.55 289.904 1149.71 289.568C1148.89 289.208 1148.2 288.692 1147.62 288.02C1147.04 287.324 1146.76 286.424 1146.76 285.32C1146.76 283.64 1147.39 282.296 1148.66 281.288C1149.94 280.28 1151.6 279.776 1153.67 279.776C1155.73 279.776 1157.6 280.316 1159.28 281.396V284.6C1158.35 283.88 1157.44 283.364 1156.55 283.052C1155.68 282.74 1154.77 282.584 1153.81 282.584C1152.61 282.584 1151.66 282.8 1150.97 283.232C1150.27 283.664 1149.92 284.264 1149.92 285.032C1149.92 285.584 1150.1 286.04 1150.46 286.4C1150.85 286.76 1151.32 287.048 1151.87 287.264C1152.42 287.48 1153.21 287.744 1154.24 288.056C1155.54 288.44 1156.6 288.812 1157.41 289.172C1158.23 289.508 1158.92 290.036 1159.5 290.756C1160.08 291.452 1160.36 292.364 1160.36 293.492C1160.36 294.644 1160.05 295.676 1159.43 296.588C1158.8 297.476 1157.94 298.172 1156.84 298.676C1155.73 299.18 1154.48 299.432 1153.09 299.432Z" fill="#2E2E97"/>
<defs>
<radialGradient id="paint0_radial_66_2" cx="0" cy="0" r="1" gradientUnits="userSpaceOnUse" gradientTransform="translate(31.5 263) rotate(47.1086) scale(240.225)">
<stop stop-color="#A2A2A2"/>
<stop offset="0.908859" stop-color="#090909"/>
</radialGradient>
</defs>
</svg>
