<svg width="122" height="42" viewBox="0 0 122 42" fill="none" xmlns="http://www.w3.org/2000/svg">
<rect x="1" y="1" width="120" height="40" rx="20" fill="#1E1E1E" stroke="#434343" stroke-width="2"/>
<path d="M35.9023 13.08H37.6623V25.32H43.9423V27H35.9023V13.08ZM51.4039 27.24C49.8839 27.24 48.6972 26.7467 47.8439 25.76C46.9906 24.76 46.5639 23.4333 46.5639 21.78C46.5639 20.1267 46.9906 18.8067 47.8439 17.82C48.6972 16.82 49.8839 16.32 51.4039 16.32C52.9239 16.32 54.1106 16.82 54.9639 17.82C55.8172 18.8067 56.2439 20.1267 56.2439 21.78C56.2439 23.4333 55.8172 24.76 54.9639 25.76C54.1106 26.7467 52.9239 27.24 51.4039 27.24ZM51.4039 25.72C52.3772 25.72 53.1106 25.36 53.6039 24.64C54.0972 23.92 54.3439 22.9667 54.3439 21.78C54.3439 20.5933 54.0972 19.64 53.6039 18.92C53.1106 18.2 52.3772 17.84 51.4039 17.84C50.4306 17.84 49.6972 18.2 49.2039 18.92C48.7239 19.64 48.4839 20.5933 48.4839 21.78C48.4839 22.9667 48.7239 23.92 49.2039 24.64C49.6972 25.36 50.4306 25.72 51.4039 25.72ZM68.7969 16.54L68.3569 18.86V26.32C68.3569 28.08 67.9502 29.4467 67.1369 30.42C66.3235 31.3933 65.1169 31.88 63.5169 31.88C62.6235 31.88 61.8902 31.7933 61.3169 31.62C60.7435 31.4467 60.1502 31.1 59.5369 30.58V28.8C60.1902 29.3467 60.8035 29.72 61.3769 29.92C61.9502 30.1333 62.6635 30.24 63.5169 30.24C64.5435 30.24 65.3102 29.9133 65.8169 29.26C66.3369 28.62 66.5969 27.72 66.5969 26.56V26.04C66.1569 26.3333 65.7102 26.5467 65.2569 26.68C64.8169 26.8 64.2902 26.86 63.6769 26.86C62.1702 26.86 61.0302 26.4067 60.2569 25.5C59.4969 24.5933 59.1169 23.32 59.1169 21.68C59.1169 19.9867 59.5169 18.6733 60.3169 17.74C61.1169 16.7933 62.3035 16.32 63.8769 16.32C64.4502 16.32 64.9435 16.38 65.3569 16.5C65.7835 16.6067 66.2969 16.7933 66.8969 17.06L67.0369 16.54H68.7969ZM63.6969 25.24C64.2835 25.24 64.7969 25.1667 65.2369 25.02C65.6769 24.8733 66.1302 24.64 66.5969 24.32V18.28C66.1702 18.1333 65.7635 18.0333 65.3769 17.98C65.0035 17.9133 64.5702 17.88 64.0769 17.88C63.0369 17.88 62.2635 18.2133 61.7569 18.88C61.2635 19.5467 61.0169 20.4733 61.0169 21.66C61.0169 24.0467 61.9102 25.24 63.6969 25.24ZM72.9992 14.2C72.6259 14.2 72.3192 14.08 72.0792 13.84C71.8526 13.6 71.7392 13.2933 71.7392 12.92C71.7392 12.5467 71.8526 12.24 72.0792 12C72.3192 11.76 72.6259 11.64 72.9992 11.64C73.3726 11.64 73.6726 11.76 73.8992 12C74.1392 12.24 74.2592 12.5467 74.2592 12.92C74.2592 13.2933 74.1392 13.6 73.8992 13.84C73.6726 14.08 73.3726 14.2 72.9992 14.2ZM73.8792 16.56V27H72.1192V16.56H73.8792ZM83.3847 16.32C84.3714 16.32 85.118 16.6267 85.6247 17.24C86.1314 17.84 86.3847 18.68 86.3847 19.76V27H84.6247V20C84.6247 19.3333 84.4847 18.82 84.2047 18.46C83.9247 18.0867 83.498 17.9 82.9247 17.9C82.2714 17.9 81.718 18.0067 81.2647 18.22C80.8247 18.4333 80.3314 18.78 79.7847 19.26V27H78.0247V18.88L77.5847 16.56H79.3447L79.6247 18.02C80.2514 17.42 80.8314 16.9867 81.3647 16.72C81.9114 16.4533 82.5847 16.32 83.3847 16.32Z" fill="white"/>
</svg>
