<svg width="390" height="116" viewBox="0 0 390 116" fill="none" xmlns="http://www.w3.org/2000/svg">
<mask id="path-1-outside-1_291_4" maskUnits="userSpaceOnUse" x="-1" y="26" width="154" height="71" fill="black">
<rect fill="white" x="-1" y="26" width="154" height="71"/>
<path d="M50.976 48.072H38.304C37.632 41.544 33.696 38.376 25.632 38.376C18.144 38.376 14.208 41.064 14.208 45.864C14.208 49.896 16.992 52.2 24.096 53.928C31.296 55.656 38.304 57.384 43.008 59.496C48.576 61.992 52.992 65.928 52.992 74.952C52.992 88.968 42.432 95.208 27.552 95.208C11.808 95.208 0.864 88.2 0.576 73.896H13.44C13.632 80.424 19.104 84.456 27.648 84.456C35.52 84.456 40.032 81.096 40.032 75.432C40.032 71.688 38.112 69.096 30.144 67.368C22.272 65.64 17.184 64.488 12.672 62.472C5.856 59.4 2.016 54.792 2.016 46.728C2.016 35.304 9.792 27.144 25.344 27.144C41.472 27.144 50.496 35.88 50.976 48.072ZM99.5978 93H85.5818L75.2138 71.784L69.1658 78.024V93H56.5898V28.488H69.1658V63.72L84.7178 45.768H99.9818L84.1418 63.144L99.5978 93ZM115.764 93H103.284V45.768H115.764V93ZM115.764 40.104H103.284V28.488H115.764V40.104ZM133.945 93H121.465V28.488H133.945V93ZM151.664 93H139.184V28.488H151.664V93Z"/>
</mask>
<path d="M50.976 48.072H38.304C37.632 41.544 33.696 38.376 25.632 38.376C18.144 38.376 14.208 41.064 14.208 45.864C14.208 49.896 16.992 52.2 24.096 53.928C31.296 55.656 38.304 57.384 43.008 59.496C48.576 61.992 52.992 65.928 52.992 74.952C52.992 88.968 42.432 95.208 27.552 95.208C11.808 95.208 0.864 88.2 0.576 73.896H13.44C13.632 80.424 19.104 84.456 27.648 84.456C35.52 84.456 40.032 81.096 40.032 75.432C40.032 71.688 38.112 69.096 30.144 67.368C22.272 65.64 17.184 64.488 12.672 62.472C5.856 59.4 2.016 54.792 2.016 46.728C2.016 35.304 9.792 27.144 25.344 27.144C41.472 27.144 50.496 35.88 50.976 48.072ZM99.5978 93H85.5818L75.2138 71.784L69.1658 78.024V93H56.5898V28.488H69.1658V63.72L84.7178 45.768H99.9818L84.1418 63.144L99.5978 93ZM115.764 93H103.284V45.768H115.764V93ZM115.764 40.104H103.284V28.488H115.764V40.104ZM133.945 93H121.465V28.488H133.945V93ZM151.664 93H139.184V28.488H151.664V93Z" fill="white"/>
<path d="M50.976 48.072V49.072H52.0161L51.9752 48.0327L50.976 48.072ZM38.304 48.072L37.3093 48.1744L37.4017 49.072H38.304V48.072ZM24.096 53.928L23.8596 54.8997L23.8626 54.9004L24.096 53.928ZM43.008 59.496L42.5984 60.4083L42.5989 60.4085L43.008 59.496ZM0.576 73.896V72.896H-0.444337L-0.423797 73.9161L0.576 73.896ZM13.44 73.896L14.4396 73.8666L14.411 72.896H13.44V73.896ZM30.144 67.368L29.9296 68.3447L29.9321 68.3453L30.144 67.368ZM12.672 62.472L12.2611 63.3837L12.2641 63.385L12.672 62.472ZM50.976 47.072H38.304V49.072H50.976V47.072ZM39.2987 47.9696C38.9435 44.5187 37.704 41.8069 35.3524 39.9854C33.0296 38.1863 29.7741 37.376 25.632 37.376V39.376C29.5539 39.376 32.2984 40.1497 34.1276 41.5666C35.928 42.9611 36.9925 45.0973 37.3093 48.1744L39.2987 47.9696ZM25.632 37.376C21.7944 37.376 18.7121 38.0604 16.5597 39.4863C14.3477 40.9518 13.208 43.1438 13.208 45.864H15.208C15.208 43.7842 16.0363 42.2322 17.6643 41.1536C19.3519 40.0356 21.9816 39.376 25.632 39.376V37.376ZM13.208 45.864C13.208 48.162 14.0251 50.037 15.8548 51.534C17.6168 52.9756 20.2684 54.0261 23.8597 54.8997L24.3324 52.9563C20.8196 52.1019 18.5272 51.1364 17.1212 49.986C15.7829 48.891 15.208 47.598 15.208 45.864H13.208ZM23.8626 54.9004C31.0935 56.6358 37.9982 58.3429 42.5984 60.4083L43.4176 58.5837C38.6098 56.4251 31.4985 54.6762 24.3294 52.9556L23.8626 54.9004ZM42.5989 60.4085C45.3004 61.6195 47.6264 63.1384 49.2852 65.3722C50.9339 67.5925 51.992 70.6121 51.992 74.952H53.992C53.992 70.2679 52.8421 66.8075 50.8909 64.1798C48.9496 61.5656 46.2836 59.8685 43.4171 58.5835L42.5989 60.4085ZM51.992 74.952C51.992 81.6757 49.4773 86.4262 45.2592 89.5306C40.9945 92.6695 34.874 94.208 27.552 94.208V96.208C35.11 96.208 41.7095 94.6265 46.4448 91.1414C51.2268 87.6218 53.992 82.2443 53.992 74.952H51.992ZM27.552 94.208C19.8108 94.208 13.3761 92.4828 8.86638 89.1148C4.39404 85.7747 1.71413 80.7462 1.5758 73.8759L-0.423797 73.9161C-0.274125 81.3498 2.66196 86.9773 7.66962 90.7172C12.6399 94.4292 19.5492 96.208 27.552 96.208V94.208ZM0.576 74.896H13.44V72.896H0.576V74.896ZM12.4404 73.9254C12.5454 77.4929 14.1081 80.4192 16.8164 82.4273C19.4974 84.4152 23.2313 85.456 27.648 85.456V83.456C23.5207 83.456 20.2466 82.4808 18.0076 80.8207C15.7959 79.1808 14.5266 76.8271 14.4396 73.8666L12.4404 73.9254ZM27.648 85.456C31.7074 85.456 35.0395 84.5923 37.3832 82.8746C39.7671 81.1272 41.032 78.5637 41.032 75.432H39.032C39.032 77.9643 38.0409 79.9128 36.2008 81.2614C34.3205 82.6397 31.4606 83.456 27.648 83.456V85.456ZM41.032 75.432C41.032 73.3592 40.4862 71.4721 38.746 69.9016C37.0727 68.3916 34.3912 67.2658 30.3559 66.3907L29.9321 68.3453C33.8648 69.1982 36.1273 70.2324 37.406 71.3864C38.6178 72.4799 39.032 73.7608 39.032 75.432H41.032ZM30.3584 66.3913C22.4592 64.6573 17.4799 63.5249 13.0799 61.559L12.2641 63.385C16.8881 65.4511 22.0848 66.6227 29.9296 68.3447L30.3584 66.3913ZM13.0829 61.5603C9.7771 60.0704 7.2796 58.2464 5.60251 55.8919C3.93297 53.5479 3.016 50.5931 3.016 46.728H1.016C1.016 50.9269 2.01903 54.3081 3.97349 57.0521C5.9204 59.7856 8.7509 61.8016 12.2611 63.3837L13.0829 61.5603ZM3.016 46.728C3.016 41.2523 4.87224 36.6463 8.51365 33.3983C12.1676 30.1391 17.7355 28.144 25.344 28.144V26.144C17.4005 26.144 11.3044 28.2289 7.18235 31.9057C3.04776 35.5937 1.016 40.7797 1.016 46.728H3.016ZM25.344 28.144C33.2313 28.144 39.2689 30.2787 43.3777 33.7957C47.4767 37.3042 49.7466 42.2639 49.9768 48.1113L51.9752 48.0327C51.7254 41.6881 49.2433 36.1838 44.6783 32.2763C40.1231 28.3773 33.5847 26.144 25.344 26.144V28.144ZM99.5978 93V94H101.241L100.486 92.5403L99.5978 93ZM85.5818 93L84.6833 93.4391L84.9574 94H85.5818V93ZM75.2138 71.784L76.1122 71.3449L75.4869 70.0654L74.4957 71.088L75.2138 71.784ZM69.1658 78.024L68.4477 77.328L68.1658 77.6189V78.024H69.1658ZM69.1658 93V94H70.1658V93H69.1658ZM56.5898 93H55.5898V94H56.5898V93ZM56.5898 28.488V27.488H55.5898V28.488H56.5898ZM69.1658 28.488H70.1658V27.488H69.1658V28.488ZM69.1658 63.72H68.1658V66.4016L69.9216 64.3748L69.1658 63.72ZM84.7178 45.768V44.768H84.261L83.9619 45.1132L84.7178 45.768ZM99.9818 45.768L100.721 46.4417L102.247 44.768H99.9818V45.768ZM84.1418 63.144L83.4027 62.4703L82.9334 62.9851L83.2537 63.6037L84.1418 63.144ZM99.5978 92H85.5818V94H99.5978V92ZM86.4802 92.5609L76.1122 71.3449L74.3153 72.2231L84.6833 93.4391L86.4802 92.5609ZM74.4957 71.088L68.4477 77.328L69.8838 78.72L75.9318 72.48L74.4957 71.088ZM68.1658 78.024V93H70.1658V78.024H68.1658ZM69.1658 92H56.5898V94H69.1658V92ZM57.5898 93V28.488H55.5898V93H57.5898ZM56.5898 29.488H69.1658V27.488H56.5898V29.488ZM68.1658 28.488V63.72H70.1658V28.488H68.1658ZM69.9216 64.3748L85.4736 46.4228L83.9619 45.1132L68.4099 63.0652L69.9216 64.3748ZM84.7178 46.768H99.9818V44.768H84.7178V46.768ZM99.2427 45.0943L83.4027 62.4703L84.8808 63.8177L100.721 46.4417L99.2427 45.0943ZM83.2537 63.6037L98.7097 93.4597L100.486 92.5403L85.0298 62.6843L83.2537 63.6037ZM115.764 93V94H116.764V93H115.764ZM103.284 93H102.284V94H103.284V93ZM103.284 45.768V44.768H102.284V45.768H103.284ZM115.764 45.768H116.764V44.768H115.764V45.768ZM115.764 40.104V41.104H116.764V40.104H115.764ZM103.284 40.104H102.284V41.104H103.284V40.104ZM103.284 28.488V27.488H102.284V28.488H103.284ZM115.764 28.488H116.764V27.488H115.764V28.488ZM115.764 92H103.284V94H115.764V92ZM104.284 93V45.768H102.284V93H104.284ZM103.284 46.768H115.764V44.768H103.284V46.768ZM114.764 45.768V93H116.764V45.768H114.764ZM115.764 39.104H103.284V41.104H115.764V39.104ZM104.284 40.104V28.488H102.284V40.104H104.284ZM103.284 29.488H115.764V27.488H103.284V29.488ZM114.764 28.488V40.104H116.764V28.488H114.764ZM133.945 93V94H134.945V93H133.945ZM121.465 93H120.465V94H121.465V93ZM121.465 28.488V27.488H120.465V28.488H121.465ZM133.945 28.488H134.945V27.488H133.945V28.488ZM133.945 92H121.465V94H133.945V92ZM122.465 93V28.488H120.465V93H122.465ZM121.465 29.488H133.945V27.488H121.465V29.488ZM132.945 28.488V93H134.945V28.488H132.945ZM151.664 93V94H152.664V93H151.664ZM139.184 93H138.184V94H139.184V93ZM139.184 28.488V27.488H138.184V28.488H139.184ZM151.664 28.488H152.664V27.488H151.664V28.488ZM151.664 92H139.184V94H151.664V92ZM140.184 93V28.488H138.184V93H140.184ZM139.184 29.488H151.664V27.488H139.184V29.488ZM150.664 28.488V93H152.664V28.488H150.664Z" fill="white" mask="url(#path-1-outside-1_291_4)"/>
<path d="M208.584 66.12H180.552V93H167.208V29.256H212.616V40.392H180.552V54.888H208.584V66.12ZM235.634 83.784C243.218 83.784 247.058 78.984 247.058 69.384C247.058 59.784 243.218 55.08 235.634 55.08C228.05 55.08 224.21 59.784 224.21 69.384C224.21 78.984 228.05 83.784 235.634 83.784ZM235.634 94.248C220.37 94.248 211.346 84.072 211.346 69.384C211.346 54.408 220.658 44.52 235.634 44.52C250.418 44.52 259.634 54.312 259.634 69.384C259.634 84.36 250.322 94.248 235.634 94.248ZM276.632 93H264.152V45.768H275.864V51.432C279.992 45.096 284.792 44.52 289.88 44.52H291.512V57.288C290.36 57.096 289.208 57 288.056 57C280.376 57 276.632 60.84 276.632 68.424V93ZM315.027 83.592C321.075 83.592 325.683 78.504 325.683 70.536C325.683 60.264 322.131 55.368 315.027 55.368C308.019 55.368 304.371 60.072 304.371 69.768C304.371 78.216 308.883 83.592 315.027 83.592ZM325.299 94.44V86.664C323.571 90.888 318.483 93.384 312.339 93.384C296.787 93.384 291.411 81.48 291.411 69.096C291.411 54.408 300.627 44.52 312.051 44.52C318.003 44.52 322.323 46.824 325.299 51.624V45.768H337.779V93.48C337.779 107.688 327.411 115.368 314.259 115.368C301.107 115.368 291.411 107.784 291.411 95.592H303.027C303.027 101.256 307.155 104.616 313.395 104.616C320.019 104.616 325.299 100.68 325.299 94.44ZM355.085 64.776H374.381C374.189 57.768 369.581 54.408 364.685 54.408C359.693 54.408 355.565 58.248 355.085 64.776ZM387.245 72.648H354.701C355.085 79.752 359.117 84.36 365.261 84.36C369.293 84.36 372.845 82.344 373.709 79.08H386.573C383.693 88.776 375.917 94.248 365.837 94.248C350.093 94.248 342.221 85.608 342.221 68.52C342.221 53.928 350.573 44.52 365.069 44.52C379.565 44.52 387.245 53.928 387.245 72.648Z" fill="#DF5757"/>
</svg>
