<svg width="15" height="15" viewBox="0 0 15 15" fill="none" xmlns="http://www.w3.org/2000/svg">
<path d="M5.89289 10.7146H4.28571V0.535729C4.28571 0.393645 4.22926 0.25738 4.1288 0.156911C4.02833 0.0564427 3.89206 0 3.74998 0H2.67852C2.53644 0 2.40017 0.0564427 2.2997 0.156911C2.19923 0.25738 2.14279 0.393645 2.14279 0.535729V10.7146H0.535606C0.0604814 10.7146 -0.179592 11.2918 0.157582 11.629L2.83623 14.8434C2.93668 14.9438 3.0729 15.0002 3.21492 15.0002C3.35694 15.0002 3.49315 14.9438 3.59361 14.8434L6.27226 11.629C6.60776 11.2925 6.36902 10.7146 5.89289 10.7146ZM9.64299 6.42875H13.9288C14.0709 6.42875 14.2072 6.3723 14.3076 6.27183C14.4081 6.17137 14.4646 6.0351 14.4646 5.89302V4.82156C14.4646 4.67948 14.4081 4.54321 14.3076 4.44274C14.2072 4.34227 14.0709 4.28583 13.9288 4.28583H12.0538L14.1049 1.92695C14.218 1.82641 14.3086 1.70306 14.3705 1.56502C14.4325 1.42697 14.4646 1.27736 14.4646 1.12603V0.535729C14.4646 0.393645 14.4081 0.25738 14.3076 0.156911C14.2072 0.0564427 14.0709 0 13.9288 0H9.64299C9.50091 0 9.36465 0.0564427 9.26418 0.156911C9.16371 0.25738 9.10727 0.393645 9.10727 0.535729V1.60719C9.10727 1.74927 9.16371 1.88554 9.26418 1.986C9.36465 2.08647 9.50091 2.14292 9.64299 2.14292H11.518L9.46687 4.5018C9.35377 4.60233 9.26325 4.72568 9.20127 4.86373C9.13929 5.00178 9.10725 5.15139 9.10727 5.30271V5.89302C9.10727 6.0351 9.16371 6.17137 9.26418 6.27183C9.36465 6.3723 9.50091 6.42875 9.64299 6.42875ZM14.9688 14.2845L12.9843 8.92725C12.9471 8.82317 12.8787 8.73314 12.7883 8.66948C12.698 8.60582 12.5902 8.57165 12.4797 8.57166H11.0921C10.9816 8.57165 10.8738 8.60582 10.7835 8.66948C10.6931 8.73314 10.6247 8.82317 10.5876 8.92725L8.60301 14.2845C8.57415 14.3654 8.56514 14.4519 8.57672 14.537C8.5883 14.622 8.62014 14.703 8.66957 14.7732C8.71899 14.8434 8.78454 14.9006 8.86072 14.9402C8.93689 14.9797 9.02144 15.0004 9.10727 15.0004H9.93865C10.052 15.0004 10.1624 14.9646 10.254 14.8979C10.3456 14.8312 10.4138 14.7372 10.4486 14.6294L10.5966 14.1968H12.9739L13.1215 14.6294C13.1565 14.7375 13.2248 14.8316 13.3167 14.8983C13.4086 14.965 13.5193 15.0007 13.6328 15.0004H14.4646C14.5504 15.0004 14.6349 14.9797 14.7111 14.9402C14.7873 14.9006 14.8528 14.8434 14.9023 14.7732C14.9517 14.703 14.9835 14.622 14.9951 14.537C15.0067 14.4519 14.9977 14.3654 14.9688 14.2845ZM11.2371 12.3218L11.7859 10.7146L12.3347 12.3218H11.2371Z" fill="#EAEAEA"/>
</svg>
