<svg width="36" height="36" viewBox="0 0 36 36" fill="none" xmlns="http://www.w3.org/2000/svg">
<path d="M18 0C8.05645 0 0 8.05645 0 18C0 27.9435 8.05645 36 18 36C27.9435 36 36 27.9435 36 18C36 8.05645 27.9435 0 18 0ZM28.4516 20.0323C28.4516 20.5113 28.0597 20.9032 27.5806 20.9032H20.9032V27.5806C20.9032 28.0597 20.5113 28.4516 20.0323 28.4516H15.9677C15.4887 28.4516 15.0968 28.0597 15.0968 27.5806V20.9032H8.41935C7.94032 20.9032 7.54839 20.5113 7.54839 20.0323V15.9677C7.54839 15.4887 7.94032 15.0968 8.41935 15.0968H15.0968V8.41935C15.0968 7.94032 15.4887 7.54839 15.9677 7.54839H20.0323C20.5113 7.54839 20.9032 7.94032 20.9032 8.41935V15.0968H27.5806C28.0597 15.0968 28.4516 15.4887 28.4516 15.9677V20.0323Z" fill="#808080"/>
</svg>
